<?xml version="1.0" standalone="no"?>
<!DOCTYPE svg PUBLIC "-//W3C//DTD SVG 1.1//EN" "http://www.w3.org/Graphics/SVG/1.1/DTD/svg11.dtd" >
<svg xmlns="http://www.w3.org/2000/svg">
<metadata>Generated by IcoMoon</metadata>
<defs>
<font id="icomoon" horiz-adv-x="1024">
<font-face units-per-em="1024" ascent="960" descent="-64" />
<missing-glyph horiz-adv-x="1024" />
<glyph unicode="&#x20;" horiz-adv-x="512" d="" />
<glyph unicode="&#xe950;" glyph-name="Finance" d="M954.051 960v-0.006c38.63 0 69.949-31.331 69.949-69.93v-884.015c0-38.598-31.319-69.93-70.062-69.93h-29.033c-1.143 0-2.399-0.12-3.548-0.12h-761.108c-29.49 0-53.38 23.728-53.38 53.021v52.901h89.040c59.089 0 106.869 47.456 106.869 105.922s-47.774 105.914-106.869 105.914h-89.040v88.325h89.040c59.089 0 106.869 47.455 106.869 105.92s-47.774 105.916-106.869 105.916h-89.040v88.325h89.040c59.089 0 106.869 47.455 106.869 105.92s-47.774 105.916-106.869 105.916h-88.927v53.019c0 29.286 23.89 52.901 53.382 52.901h761.112c0.911 0 1.829-0.112 2.739-0.112v0.112h29.836zM826.364 465.807c-16.883 10.886-48.962 26.793-96.238 46.888-54.869 24.287-87.793 40.195-98.768 48.57-11.819 8.37-17.728 22.605-17.728 43.539 0 12.563 2.531 21.772 8.443 28.47 5.908 5.864 14.352 9.213 25.327 9.213 14.351 0 22.79-3.349 27.012-10.886 4.222-7.536 6.753-22.61 6.753-46.053v-21.772h184.029c0.846 10.886 1.69 19.261 1.69 25.12 0 39.356-14.351 69.498-42.209 92.109-28.702 22.605-70.91 36.006-127.47 41.028v42.705h-85.262v-42.705c-62.471-5.022-108.902-19.256-140.135-41.867-31.234-22.61-46.43-53.59-46.43-92.946 0-27.632 7.599-51.914 21.949-73.685s32.078-38.518 52.337-50.242c20.259-11.72 58.251-30.981 114.81-56.102 33.765-15.069 53.183-29.303 59.090-41.866 5.912-12.559 8.443-34.331 8.443-63.639 0-11.72-3.376-20.934-9.288-26.793-5.908-5.859-15.193-9.214-27.858-9.214-14.351 0-23.635 4.188-27.857 13.402-4.222 8.37-5.907 30.981-5.907 66.149v32.658h-183.19v-25.959c0-59.451 18.572-100.484 54.874-123.927 37.141-23.445 80.194-37.679 129.161-41.029v-51.919h85.262v50.242c63.313 6.698 110.583 22.611 142.663 50.242 31.238 26.793 47.275 64.476 47.275 111.365 0 29.309-5.907 54.429-17.728 73.69-11.821 19.256-26.166 34.329-43.053 45.215zM0 448.003c0.113 29.286 24.003 53.015 53.495 53.015h142.414c29.605 0 53.493-23.84 53.493-53.015 0-29.179-24.003-52.901-53.493-52.901h-142.528c-29.49 0-53.38 23.61-53.38 52.901zM53.495 695.263c-29.492 0-53.495 23.722-53.382 53.013 0 29.174 23.89 52.903 53.382 52.903h142.414c29.605 0 53.493-23.616 53.493-52.903 0-29.291-24.003-53.013-53.493-53.013h-142.414zM249.402 147.955c0-29.286-24.003-53.015-53.493-53.015h-142.414c-29.492 0-53.382 23.84-53.382 53.015 0 29.179 23.89 52.907 53.382 52.907h142.414c29.605 0 53.493-23.728 53.493-52.907z" />
<glyph unicode="&#xe951;" glyph-name="Document" d="M1024 630.445v153.023c-0.127 50.312-40.885 91.070-91.197 91.198h-841.49c-50.362-0.067-91.185-40.836-91.314-91.198v-153.023c98.252 0 177.896-79.644 177.896-177.896s-79.644-177.896-177.896-177.896v-153.023c0.161-50.345 40.969-91.103 91.314-91.198h841.49c50.301 0.163 91.036 40.897 91.197 91.198v153.023c-98.251 0-177.895 79.644-177.895 177.896s79.644 177.896 177.895 177.896zM694.657 248.495h-376.817c-17.917 0-34.47 9.56-43.429 25.077-8.96 15.518-8.96 34.633 0 50.151s25.512 25.078 43.429 25.078h376.817c17.917 0 34.47-9.56 43.429-25.078 8.96-15.518 8.96-34.633 0-50.151-8.959-15.517-25.512-25.077-43.429-25.077zM694.657 556.296h-376.817c-27.694 0-50.15 22.456-50.15 50.151 0 27.7 22.456 50.155 50.15 50.155h376.817c17.917 0 34.47-9.56 43.429-25.078 8.96-15.517 8.96-34.631 0-50.15-8.959-15.518-25.512-25.078-43.429-25.078z" />
<glyph unicode="&#xe952;" glyph-name="ICON1" d="M815.518 960h-618.412c-93.008 0-168.661-76.554-168.661-170.668v-682.663c0-94.115 75.653-170.669 168.661-170.669h618.412c93.008 0 168.66 76.56 168.66 170.669v682.663c0 94.114-75.652 170.668-168.66 170.668zM742.718 51.669h-472.812c-31.050 0-56.221 25.442-56.221 56.889 0 31.442 25.171 56.89 56.221 56.89h472.812c31.048 0 56.22-25.448 56.22-56.89 0-31.446-25.171-56.889-56.22-56.889zM742.718 255.499h-472.812c-31.050 0-56.221 25.448-56.221 56.889 0 31.446 25.171 56.89 56.221 56.89h472.812c31.048 0 56.22-25.444 56.22-56.89 0-31.441-25.171-56.889-56.22-56.889zM808.449 749.001l-293.15-296.667c-10.535-10.668-24.838-16.665-39.745-16.665s-29.209 5.997-39.751 16.665l-155.067 156.946c-21.964 22.219-21.964 58.218 0 80.443 21.959 22.221 57.534 22.221 79.498 0l115.321-116.721 253.399 256.443c21.964 22.225 57.538 22.225 79.496 0 21.965-22.221 21.965-58.225 0-80.444z" />
<glyph unicode="&#xe900;" glyph-name="CRM" horiz-adv-x="1536" d="M1515.443 234.092c11.351 0 20.557 9.206 20.557 20.562 0 37.944 0 118.569 0 156.513 0 11.356-9.206 20.557-20.557 20.557-16.886 0-40.684 0-57.564 0-11.356 0-20.562-9.201-20.562-20.557 0-37.944 0-118.569 0-156.513 0-11.356 9.206-20.562 20.562-20.562 16.881 0 40.678 0 57.564 0zM1515.443 3.241c11.351 0 20.557 9.206 20.557 20.557 0 37.949 0 118.569 0 156.518 0 11.351-9.206 20.557-20.557 20.557-16.886 0-40.684 0-57.564 0-11.356 0-20.562-9.206-20.562-20.557 0-37.949 0-118.569 0-156.518 0-11.351 9.206-20.557 20.562-20.557 16.881 0 40.678 0 57.564 0zM1515.443 464.942c11.351 0 20.557 9.206 20.557 20.562 0 37.944 0 118.569 0 156.513 0 11.356-9.206 20.562-20.557 20.562-16.886 0-40.684 0-57.564 0-11.356 0-20.562-9.206-20.562-20.562 0-37.944 0-118.569 0-156.513 0-11.356 9.206-20.562 20.562-20.562 16.881 0 40.678 0 57.564 0zM1515.443 695.798c11.351 0 20.557 9.206 20.557 20.557 0 37.949 0 118.569 0 156.513 0 11.356-9.206 20.562-20.557 20.562-16.886 0-40.684 0-57.564 0-11.356 0-20.562-9.206-20.562-20.562 0-37.944 0-118.564 0-156.513 0-11.351 9.206-20.557 20.562-20.557 16.881 0 40.678 0 57.564 0zM1404.196 907.674c0-171.96 0-718.474 0-890.435 0-28.897-23.424-52.321-52.326-52.326-221.199 0-1078.344 0-1299.543 0-28.897 0.005-52.326 23.429-52.326 52.326 0 171.96 0 718.474 0 890.435 0 28.897 23.429 52.326 52.326 52.326 221.199 0 1078.344 0 1299.543 0 28.902 0 52.326-23.429 52.326-52.326zM438.81 579.968v73.027h-115.574c-34.094 0-61.967-5.724-83.615-17.183-21.647-11.453-38.953-29.66-51.907-54.615-17.731-34.365-26.593-78.961-26.593-133.78 0-45.824 5.796-84.28 17.388-115.374 17.731-46.228 47.56-74.255 89.498-84.076 11.93-2.862 29.148-4.296 51.651-4.296h119.153v73.032h-104.325c-28.979 0-50.289 6.543-63.923 19.635-19.436 18.821-29.148 58.506-29.148 119.055 0 45 6.308 76.093 18.918 93.276 15.002 20.864 38.697 31.299 71.086 31.299h107.392zM801.393 243.671c-3.41 11.873-6.134 32.532-8.182 61.983-1.024 17.592-2.473 30.889-4.347 39.89s-4.859 18.412-8.95 28.232c-5.453 12.273-11.592 21.581-18.412 27.919-6.815 6.344-16.876 12.375-30.172 18.104 16.707 6.543 30.172 16.159 40.402 28.841 16.364 21.274 24.545 51.348 24.545 90.214 0 19.226-3.492 36.92-10.481 53.079-6.989 16.164-16.963 29.153-29.916 38.973-18.755 14.725-51.994 22.088-99.722 22.088h-166.717v-409.324h72.617v155.264h58.301c25.231 0.41 44.493-3.686 57.789-12.273 10.568-7.368 18.493-17.388 23.777-30.075 5.284-12.682 8.781-30.884 10.486-54.615 2.724-29.455 5.284-48.891 7.67-58.301h81.311zM1239.153 243.671v409.324h-105.861l-89.492-319.724-84.895 319.724h-105.861v-409.324h69.043v306.842l84.378-306.842h74.665l88.986 306.842v-306.842h69.038zM663.828 579.968c12.959 0 22.333-1.229 28.124-3.681 16.369-6.953 24.55-22.912 24.55-47.867 0-22.502-5.458-38.252-16.369-47.252-7.158-6.139-19.261-9.206-36.306-9.206h-101.77v108.006h101.77z" />
<glyph unicode="&#xe901;" glyph-name="CRM_sm" horiz-adv-x="1536" d="M1515.443 234.092c11.351 0 20.557 9.206 20.557 20.562 0 37.944 0 118.569 0 156.513 0 11.356-9.206 20.557-20.557 20.557-16.886 0-40.684 0-57.564 0-11.356 0-20.562-9.201-20.562-20.557 0-37.944 0-118.569 0-156.513 0-11.356 9.206-20.562 20.562-20.562 16.881 0 40.678 0 57.564 0zM1515.443 3.241c11.351 0 20.557 9.206 20.557 20.557 0 37.949 0 118.569 0 156.518 0 11.351-9.206 20.557-20.557 20.557-16.886 0-40.684 0-57.564 0-11.356 0-20.562-9.206-20.562-20.557 0-37.949 0-118.569 0-156.518 0-11.351 9.206-20.557 20.562-20.557 16.881 0 40.678 0 57.564 0zM1515.443 464.942c11.351 0 20.557 9.206 20.557 20.562 0 37.944 0 118.569 0 156.513 0 11.356-9.206 20.562-20.557 20.562-16.886 0-40.684 0-57.564 0-11.356 0-20.562-9.206-20.562-20.562 0-37.944 0-118.569 0-156.513 0-11.356 9.206-20.562 20.562-20.562 16.881 0 40.678 0 57.564 0zM1515.443 695.798c11.351 0 20.557 9.206 20.557 20.557 0 37.949 0 118.569 0 156.513 0 11.356-9.206 20.562-20.557 20.562-16.886 0-40.684 0-57.564 0-11.356 0-20.562-9.206-20.562-20.562 0-37.944 0-118.564 0-156.513 0-11.351 9.206-20.557 20.562-20.557 16.881 0 40.678 0 57.564 0zM1404.196 907.674c0-171.96 0-718.474 0-890.435 0-28.897-23.424-52.321-52.326-52.326-221.199 0-1078.344 0-1299.543 0-28.897 0.005-52.326 23.429-52.326 52.326 0 171.96 0 718.474 0 890.435 0 28.897 23.429 52.326 52.326 52.326 221.199 0 1078.344 0 1299.543 0 28.902 0 52.326-23.429 52.326-52.326zM438.81 579.968v73.027h-115.574c-34.094 0-61.967-5.724-83.615-17.183-21.647-11.453-38.953-29.66-51.907-54.615-17.731-34.365-26.593-78.961-26.593-133.78 0-45.824 5.796-84.28 17.388-115.374 17.731-46.228 47.56-74.255 89.498-84.076 11.93-2.862 29.148-4.296 51.651-4.296h119.153v73.032h-104.325c-28.979 0-50.289 6.543-63.923 19.635-19.436 18.821-29.148 58.506-29.148 119.055 0 45 6.308 76.093 18.918 93.276 15.002 20.864 38.697 31.299 71.086 31.299h107.392zM801.393 243.671c-3.41 11.873-6.134 32.532-8.182 61.983-1.024 17.592-2.473 30.889-4.347 39.89s-4.859 18.412-8.95 28.232c-5.453 12.273-11.592 21.581-18.412 27.919-6.815 6.344-16.876 12.375-30.172 18.104 16.707 6.543 30.172 16.159 40.402 28.841 16.364 21.274 24.545 51.348 24.545 90.214 0 19.226-3.492 36.92-10.481 53.079-6.989 16.164-16.963 29.153-29.916 38.973-18.755 14.725-51.994 22.088-99.722 22.088h-166.717v-409.324h72.617v155.264h58.301c25.231 0.41 44.493-3.686 57.789-12.273 10.568-7.368 18.493-17.388 23.777-30.075 5.284-12.682 8.781-30.884 10.486-54.615 2.724-29.455 5.284-48.891 7.67-58.301h81.311zM1239.153 243.671v409.324h-105.861l-89.492-319.724-84.895 319.724h-105.861v-409.324h69.043v306.842l84.378-306.842h74.665l88.986 306.842v-306.842h69.038zM663.828 579.968c12.959 0 22.333-1.229 28.124-3.681 16.369-6.953 24.55-22.912 24.55-47.867 0-22.502-5.458-38.252-16.369-47.252-7.158-6.139-19.261-9.206-36.306-9.206h-101.77v108.006h101.77z" />
<glyph unicode="&#xe902;" glyph-name="Quotation" horiz-adv-x="1396" d="M368.123 949.146c0 5.995-4.855 10.854-10.85 10.854-17.296 0-50.921 0-68.217 0-5.995 0-10.854-4.859-10.854-10.854 0-27.164 0-97.853 0-125.016 0-5.995 4.859-10.854 10.854-10.854 17.296 0 50.921 0 68.217 0 5.995 0 10.85 4.859 10.85 10.854 0 27.164 0 97.853 0 125.016zM1118.161 949.146c0 5.995-4.859 10.854-10.854 10.854-17.296 0-50.921 0-68.217 0-5.995 0-10.85-4.859-10.85-10.854 0-27.164 0-97.853 0-125.016 0-5.995 4.855-10.854 10.85-10.854 17.296 0 50.921 0 68.217 0 5.995 0 10.854 4.859 10.854 10.854 0 27.164 0 97.853 0 125.016zM1335.059 897.545c33.857 0 61.305-27.448 61.305-61.305 0-157.868 0-634.726 0-792.595 0-33.857-27.448-61.3-61.305-61.305-230.437 0-1043.316 0-1273.754 0-33.857 0.005-61.3 27.448-61.305 61.305 0 157.868 0 634.726 0 792.595 0.005 33.857 27.448 61.305 61.305 61.305 78.047 0 202.896 0 202.896 0v-91.802c0-2.881 1.14-5.641 3.179-7.675 2.034-2.039 4.794-3.179 7.675-3.179 22.449 0 73.765 0 96.219 0 2.881 0 5.641 1.14 7.675 3.179 2.034 2.034 3.179 4.794 3.179 7.675v91.802h632.106v-91.802c0-2.881 1.145-5.641 3.179-7.675 2.034-2.039 4.794-3.179 7.675-3.179 22.454 0 73.77 0 96.219 0 2.881 0 5.641 1.14 7.675 3.179 2.039 2.034 3.179 4.794 3.179 7.675v91.802c0 0 124.849 0 202.896 0zM327.796 128.321v67.198c74.938 12.386 115.386 61.975 115.386 120.008-0.028 59.429-30.687 95.311-108.274 122.75-56.097 20.15-78.96 34.569-78.96 55.403 0 18.269 13.745 37.194 56.092 37.194 46.955 0 77.619-15.016 93.947-22.891l19.582 73.705c-22.835 10.505-52.182 20.238-95.232 21.578v57.381h-63.986v-61.975c-69.762-13.047-110.141-58.089-110.141-116.126 0-63.283 47.597-95.856 117.336-119.347 48.915-16.328 69.837-32.033 69.837-56.809 0-25.437-25.405-40.425-63.26-40.425-42.417 0-80.91 13.736-108.302 28.719l-19.526-76.302c24.795-13.726 67.142-26.117 110.876-28.058v-62.003h64.624zM1101.103 161.038c2.881 0 5.641 1.14 7.675 3.179 2.034 2.034 3.179 4.794 3.179 7.675 0 17.068 0 50.008 0 67.077 0 2.881-1.145 5.641-3.179 7.675-2.034 2.039-4.794 3.179-7.675 3.179-65.206 0-404.308 0-469.518 0-2.881 0-5.641-1.14-7.675-3.179-2.034-2.034-3.179-4.794-3.179-7.675 0-17.068 0-50.008 0-67.077 0-2.881 1.145-5.641 3.179-7.675 2.034-2.039 4.794-3.179 7.675-3.179 65.21 0 404.312 0 469.518 0zM1101.103 350.092c2.881 0 5.641 1.14 7.675 3.179 2.034 2.034 3.179 4.794 3.179 7.671 0 17.073 0 50.008 0 67.081 0 2.881-1.145 5.641-3.179 7.675s-4.794 3.179-7.675 3.179c-65.206 0-404.308 0-469.518 0-2.881 0-5.641-1.145-7.675-3.179s-3.179-4.794-3.179-7.675c0-17.073 0-50.008 0-67.081 0-2.877 1.145-5.637 3.179-7.671 2.034-2.039 4.794-3.179 7.675-3.179 65.21 0 404.312 0 469.518 0zM1211.504 539.141c5.995 0 10.854 4.859 10.854 10.854 0 17.073 0 50.008 0 67.081 0 5.995-4.859 10.854-10.854 10.854-74.184 0-505.74 0-579.919 0-5.995 0-10.854-4.859-10.854-10.854 0-17.073 0-50.008 0-67.081 0-5.995 4.859-10.854 10.854-10.854 74.179 0 505.735 0 579.919 0z" />
<glyph unicode="&#xe903;" glyph-name="Quotation_sm" horiz-adv-x="1418" d="M373.787 948.979c0 6.087-4.929 11.021-11.017 11.021-17.562 0-51.704 0-69.267 0-6.087 0-11.021-4.934-11.021-11.021 0-27.582 0-99.358 0-126.94 0-6.087 4.934-11.021 11.021-11.021 17.562 0 51.704 0 69.267 0 6.087 0 11.017 4.934 11.017 11.021 0 27.582 0 99.358 0 126.94zM1135.364 948.979c0 6.087-4.934 11.021-11.021 11.021-17.562 0-51.704 0-69.267 0-6.087 0-11.017-4.934-11.017-11.021 0-27.582 0-99.358 0-126.94 0-6.087 4.929-11.021 11.017-11.021 17.562 0 51.704 0 69.267 0 6.087 0 11.021 4.934 11.021 11.021 0 27.582 0 99.358 0 126.94zM1355.598 896.584c34.378 0 62.248-27.87 62.248-62.248 0-160.297 0-644.491 0-804.788 0-34.378-27.87-62.243-62.248-62.248-233.982 0-1059.367 0-1293.35 0-34.378 0.005-62.243 27.87-62.248 62.248 0 160.297 0 644.491 0 804.788 0.005 34.378 27.87 62.248 62.248 62.248 79.248 0 206.018 0 206.018 0v-93.214c0-2.925 1.158-5.728 3.228-7.793 2.065-2.070 4.868-3.228 7.793-3.228 22.794 0 74.9 0 97.699 0 2.925 0 5.728 1.158 7.793 3.228 2.065 2.065 3.228 4.868 3.228 7.793v93.214h641.831v-93.214c0-2.925 1.163-5.728 3.228-7.793 2.065-2.070 4.868-3.228 7.793-3.228 22.799 0 74.905 0 97.699 0 2.925 0 5.728 1.158 7.793 3.228 2.070 2.065 3.228 4.868 3.228 7.793v93.214c0 0 126.77 0 206.018 0zM332.839 115.526v68.231c76.091 12.576 117.161 62.929 117.161 121.854-0.028 60.344-31.16 96.777-109.94 124.638-56.96 20.46-80.174 35.101-80.174 56.255 0 18.55 13.956 37.767 56.955 37.767 47.677 0 78.813-15.247 95.393-23.243l19.883 74.839c-23.187 10.667-52.985 20.549-96.697 21.91v58.264h-64.97v-62.929c-70.836-13.247-111.835-58.982-111.835-117.913 0-64.257 48.33-97.33 119.142-121.183 49.667-16.579 70.911-32.525 70.911-57.683 0-25.828-25.795-41.047-64.233-41.047-43.069 0-82.155 13.947-109.968 29.16l-19.826-77.476c25.176-13.937 68.175-26.518 112.582-28.489v-62.957h65.618zM1118.043 148.746c2.925 0 5.728 1.158 7.793 3.228 2.065 2.065 3.228 4.868 3.228 7.793 0 17.331 0 50.778 0 68.109 0 2.925-1.163 5.728-3.228 7.793-2.065 2.070-4.868 3.228-7.793 3.228-66.209 0-410.528 0-476.741 0-2.925 0-5.728-1.158-7.793-3.228-2.065-2.065-3.228-4.868-3.228-7.793 0-17.331 0-50.778 0-68.109 0-2.925 1.163-5.728 3.228-7.793 2.065-2.070 4.868-3.228 7.793-3.228 66.213 0 410.533 0 476.741 0zM1118.043 340.708c2.925 0 5.728 1.158 7.793 3.228 2.065 2.065 3.228 4.868 3.228 7.789 0 17.336 0 50.778 0 68.113 0 2.925-1.163 5.728-3.228 7.793s-4.868 3.228-7.793 3.228c-66.209 0-410.528 0-476.741 0-2.925 0-5.728-1.163-7.793-3.228s-3.228-4.868-3.228-7.793c0-17.336 0-50.778 0-68.113 0-2.921 1.163-5.723 3.228-7.789 2.065-2.070 4.868-3.228 7.793-3.228 66.213 0 410.533 0 476.741 0zM1230.142 532.666c6.087 0 11.021 4.934 11.021 11.021 0 17.336 0 50.778 0 68.113 0 6.087-4.934 11.021-11.021 11.021-75.325 0-513.52 0-588.841 0-6.087 0-11.021-4.934-11.021-11.021 0-17.336 0-50.778 0-68.113 0-6.087 4.934-11.021 11.021-11.021 75.321 0 513.516 0 588.841 0z" />
<glyph unicode="&#xe904;" glyph-name="edit" horiz-adv-x="878" d="M824.988 8.798h-769.76c-30.501 0-55.228 24.727-55.228 55.228 0 30.505 24.727 55.232 55.228 55.232h769.76c29.508-1.373 52.726-25.691 52.726-55.232 0-29.537-23.218-53.86-52.726-55.228zM36.799 209.265c-5.58 0.010-10.853 2.55-14.342 6.906s-4.819 10.057-3.61 15.503l35.016 157.722c1.451 6.558 6.356 11.807 12.8 13.697 6.444 1.894 13.407 0.13 18.174-4.598l122.762-122.412c4.762-4.746 6.56-11.71 4.689-18.168-1.865-6.462-7.104-11.388-13.667-12.863l-157.78-35.373c-1.33-0.284-2.683-0.424-4.043-0.415zM276.562 321.388h-0.237c-4.867 0.010-9.532 1.952-12.963 5.407l-121.337 122.17c-7.167 7.21-7.137 18.862 0.058 26.039l480.774 479.584c3.673 3.118 8.221 5.008 13.022 5.412 4.892-0.030 9.576-1.995 13.017-5.47l121.278-122.107c7.167-7.215 7.142-18.862-0.058-26.044l-480.711-479.642c-3.431-3.378-8.034-5.296-12.843-5.349z" />
<glyph unicode="&#xe905;" glyph-name="Product" d="M515.942 948.433c-3.697 1.604-7.885 1.628-11.599 0.068-50.309-21.159-411.293-172.977-458.646-192.894-3.151-1.321-5.304-4.284-5.591-7.687 0-0.010 0-0.017-0.003-0.027-0.379-4.482 2.164-8.701 6.301-10.458 54.306-23.088 410.44-174.503 459.899-195.529 3.645-1.55 7.759-1.57 11.418-0.058 45.268 18.726 346.569 143.34 446.56 184.695 5.478 2.263 9.069 7.584 9.12 13.51s-3.447 11.308-8.881 13.667c-99.977 43.397-402.93 174.899-448.577 194.714zM558.186 482.663c-5.396-2.379-8.854-7.745-8.8-13.64 0.601-63.177 3.946-415.925 4.847-511.116 0.048-5.096 2.72-9.803 7.072-12.459 4.349-2.656 9.759-2.877 14.312-0.591 83.285 41.827 386.604 194.157 440.248 221.095 4.987 2.505 8.134 7.608 8.134 13.189 0 59.696 0 395.575 0 486.4 0 4.99-2.519 9.639-6.7 12.363-4.178 2.724-9.452 3.154-14.015 1.14-82.893-36.574-388.915-171.592-445.099-196.383zM0 179.242c0.003-5.632 3.205-10.772 8.26-13.251 54.6-26.771 363.892-178.418 448.297-219.802 4.574-2.246 9.984-1.969 14.309 0.73 4.325 2.697 6.95 7.434 6.946 12.534-0.085 95.126-0.396 447.167-0.454 510.034-0.003 5.857-3.471 11.155-8.837 13.503-56.235 24.631-364.653 159.706-447.843 196.137-4.56 2-9.827 1.56-13.995-1.164-4.171-2.727-6.687-7.373-6.683-12.353 0-90.679 0-426.394 0-486.369zM155.631 391.042c-5.356 2.587-8.636 8.137-8.315 14.080 0.754 14.070 2.171 40.369 3.185 59.273 0.266 4.929 2.98 9.4 7.229 11.913s9.475 2.734 13.923 0.587c40.943-19.753 133.007-64.171 161.915-78.118 5.366-2.587 8.649-8.148 8.325-14.094-0.768-14.1-2.202-40.462-3.232-59.395-0.266-4.929-2.983-9.4-7.236-11.909s-9.479-2.727-13.923-0.577c-40.936 19.787-132.99 64.28-161.871 78.24z" />
<glyph unicode="&#xe906;" glyph-name="Product_sm" d="M515.942 948.433c-3.697 1.604-7.885 1.628-11.599 0.068-50.309-21.159-411.293-172.977-458.646-192.894-3.151-1.321-5.304-4.284-5.591-7.687 0-0.010 0-0.017-0.003-0.027-0.379-4.482 2.164-8.701 6.301-10.458 54.306-23.088 410.44-174.503 459.899-195.529 3.645-1.55 7.759-1.57 11.418-0.058 45.268 18.726 346.569 143.34 446.56 184.695 5.478 2.263 9.069 7.584 9.12 13.51s-3.447 11.308-8.881 13.667c-99.977 43.397-402.93 174.899-448.577 194.714zM558.186 482.663c-5.396-2.379-8.854-7.745-8.8-13.64 0.601-63.177 3.946-415.925 4.847-511.116 0.048-5.096 2.72-9.803 7.072-12.459 4.349-2.656 9.759-2.877 14.312-0.591 83.285 41.827 386.604 194.157 440.248 221.095 4.987 2.505 8.134 7.608 8.134 13.189 0 59.696 0 395.575 0 486.4 0 4.99-2.519 9.639-6.7 12.363-4.178 2.724-9.452 3.154-14.015 1.14-82.893-36.574-388.915-171.592-445.099-196.383zM0 179.242c0.003-5.632 3.205-10.772 8.26-13.251 54.6-26.771 363.892-178.418 448.297-219.802 4.574-2.246 9.984-1.969 14.309 0.73 4.325 2.697 6.95 7.434 6.946 12.534-0.085 95.126-0.396 447.167-0.454 510.034-0.003 5.857-3.471 11.155-8.837 13.503-56.235 24.631-364.653 159.706-447.843 196.137-4.56 2-9.827 1.56-13.995-1.164-4.171-2.727-6.687-7.373-6.683-12.353 0-90.679 0-426.394 0-486.369zM155.631 391.042c-5.356 2.587-8.636 8.137-8.315 14.080 0.754 14.070 2.171 40.369 3.185 59.273 0.266 4.929 2.98 9.4 7.229 11.913s9.475 2.734 13.923 0.587c40.943-19.753 133.007-64.171 161.915-78.118 5.366-2.587 8.649-8.148 8.325-14.094-0.768-14.1-2.202-40.462-3.232-59.395-0.266-4.929-2.983-9.4-7.236-11.909s-9.479-2.727-13.923-0.577c-40.936 19.787-132.99 64.28-161.871 78.24z" />
<glyph unicode="&#xe907;" glyph-name="Member" horiz-adv-x="1229" d="M778.24 928.92c0-62.546 0-202.973 0-265.523 0-17.162-13.914-31.076-31.080-31.076-62.546 0-202.973 0-265.519 0-17.166 0-31.080 13.914-31.080 31.076 0 62.55 0 202.977 0 265.523 0 17.162 13.914 31.080 31.080 31.080 62.546 0 202.973 0 265.519 0 17.166 0 31.080-13.918 31.080-31.080zM778.24 244.576c0-62.546 0-202.973 0-265.519 0-17.166-13.914-31.076-31.080-31.080-62.546 0-202.973 0-265.519 0-17.166 0.004-31.080 13.914-31.080 31.080 0 62.546 0 202.973 0 265.519 0 17.166 13.914 31.080 31.080 31.080 62.546 0 202.973 0 265.519 0 17.166 0 31.080-13.914 31.080-31.080zM327.68 244.576c0-62.546 0-202.973 0-265.519 0-17.166-13.914-31.076-31.080-31.080-62.546 0-202.973 0-265.519 0-17.166 0.004-31.076 13.914-31.080 31.080 0 62.546 0 202.973 0 265.519 0.004 17.166 13.914 31.080 31.080 31.080 62.546 0 202.973 0 265.519 0 17.166 0 31.080-13.914 31.080-31.080zM1228.8 244.576c0-62.546 0-202.973 0-265.519 0-17.166-13.914-31.076-31.080-31.080-62.546 0-202.973 0-265.519 0-17.166 0.004-31.080 13.914-31.080 31.080 0 62.546 0 202.973 0 265.519 0 17.166 13.914 31.080 31.080 31.080 62.546 0 202.973 0 265.519 0 17.166 0 31.080-13.914 31.080-31.080zM594.854 485.896c0.352 28.905-0.934 74.031-0.934 102.928 0.451 11.502 9.245 20.918 22.086 20.414 12.763-1.511 17.629-8.823 18.813-18.809 1.147-29.196 3.273-74.625 3.457-103.838 143.798 2.081 287.515 1.61 430.936-7.791 16.31-3.244 17.277-12.19 17.809-20.304l-1.581-144.261c-1.532-23.421-39.064-28.897-40.96 0l1.581 123.781h-407.773c-0.324-65.765-3.408-58.028-3.408-123.785-0.827-21.074-37.847-27.369-40.899-1.606-2.601 66.261-0.545 59.060 0.266 125.391h-408.347l-1.581-123.781c-1.507-23.011-38.969-30.38-40.96 0l1.581 144.261c0.762 11.653 5.669 19.509 20.48 20.48 143.065 0 286.282 4.403 429.433 6.918z" />
<glyph unicode="&#xe908;" glyph-name="Member_sm" horiz-adv-x="1229" d="M778.24 928.92c0-62.546 0-202.973 0-265.523 0-17.162-13.914-31.076-31.080-31.076-62.546 0-202.973 0-265.519 0-17.166 0-31.080 13.914-31.080 31.076 0 62.55 0 202.977 0 265.523 0 17.162 13.914 31.080 31.080 31.080 62.546 0 202.973 0 265.519 0 17.166 0 31.080-13.918 31.080-31.080zM778.24 244.576c0-62.546 0-202.973 0-265.519 0-17.166-13.914-31.076-31.080-31.080-62.546 0-202.973 0-265.519 0-17.166 0.004-31.080 13.914-31.080 31.080 0 62.546 0 202.973 0 265.519 0 17.166 13.914 31.080 31.080 31.080 62.546 0 202.973 0 265.519 0 17.166 0 31.080-13.914 31.080-31.080zM327.68 244.576c0-62.546 0-202.973 0-265.519 0-17.166-13.914-31.076-31.080-31.080-62.546 0-202.973 0-265.519 0-17.166 0.004-31.076 13.914-31.080 31.080 0 62.546 0 202.973 0 265.519 0.004 17.166 13.914 31.080 31.080 31.080 62.546 0 202.973 0 265.519 0 17.166 0 31.080-13.914 31.080-31.080zM1228.8 244.576c0-62.546 0-202.973 0-265.519 0-17.166-13.914-31.076-31.080-31.080-62.546 0-202.973 0-265.519 0-17.166 0.004-31.080 13.914-31.080 31.080 0 62.546 0 202.973 0 265.519 0 17.166 13.914 31.080 31.080 31.080 62.546 0 202.973 0 265.519 0 17.166 0 31.080-13.914 31.080-31.080zM594.854 485.896c0.352 28.905-0.934 74.031-0.934 102.928 0.451 11.502 9.245 20.918 22.086 20.414 12.763-1.511 17.629-8.823 18.813-18.809 1.147-29.196 3.273-74.625 3.457-103.838 143.798 2.081 287.515 1.61 430.936-7.791 16.31-3.244 17.277-12.19 17.809-20.304l-1.581-144.261c-1.532-23.421-39.064-28.897-40.96 0l1.581 123.781h-407.773c-0.324-65.765-3.408-58.028-3.408-123.785-0.827-21.074-37.847-27.369-40.899-1.606-2.601 66.261-0.545 59.060 0.266 125.391h-408.347l-1.581-123.781c-1.507-23.011-38.969-30.38-40.96 0l1.581 144.261c0.762 11.653 5.669 19.509 20.48 20.48 143.065 0 286.282 4.403 429.433 6.918z" />
<glyph unicode="&#xe909;" glyph-name="error" d="M384 448l-384 384 128 128 384-384 384 384 128-128-384-384 384-384-128-128-384 384-384-384-128 128z" />
<glyph unicode="&#xe90a;" glyph-name="Order" d="M347.914 344.462c-2.7 0-5.472 0.276-8.24 0.86l-2.096 0.444-4.12 0.86c-21.381 4.628-34.959 25.713-30.331 47.090 4.622 21.381 25.706 34.963 47.090 30.334l5.888-1.229c19.828-4.205 33.283-22.702 31.181-42.858-2.099-20.159-19.081-35.482-39.349-35.502h-0.024zM410.986 496.547c-2.727 0-5.495 0.28-8.264 0.86l-1.908 0.42-4.308 0.908c-13.831 2.993-25.016 13.141-29.338 26.61-4.325 13.479-1.13 28.235 8.376 38.717 9.513 10.479 23.887 15.094 37.721 12.1l3.86-0.816 2.004-0.416c19.876-4.154 33.393-22.671 31.293-42.865-2.099-20.2-19.135-35.536-39.438-35.519zM472.89 660.622c-2.768 0-5.533 0.287-8.236 0.857l-1.983 0.42-4.233 0.911c-13.961 2.86-25.313 13.001-29.72 26.556-4.41 13.558-1.191 28.43 8.421 38.956 9.609 10.523 24.136 15.073 38.031 11.913l3.813-0.812 2.075-0.42c19.879-4.157 33.399-22.678 31.293-42.878-2.109-20.2-19.149-35.536-39.462-35.502zM627.535 245.622c-4.116 0-8.26 0.625-12.377 1.976l-172.503 56.556c-13.449 4.413-23.521 15.667-26.423 29.522-2.898 13.851 1.812 28.204 12.36 37.642 10.547 9.441 25.334 12.537 38.782 8.12l172.52-56.556c18.524-6.045 29.901-24.668 26.822-43.909s-19.695-33.386-39.182-33.352zM692.374 405.503c-4.12 0-8.264 0.628-12.384 1.98l-172.52 56.556c-13.541 4.335-23.723 15.599-26.665 29.512-2.949 13.913 1.792 28.334 12.411 37.792 10.619 9.455 25.494 12.489 38.97 7.953l172.547-56.545c18.524-6.052 29.897-24.675 26.819-43.913-3.075-19.244-19.692-33.389-39.178-33.355v0.020zM762.59 577.398c-3.492 0-6.984 0.464-10.499 1.396l-173.152 47.336c-21.101 5.786-33.519 27.583-27.737 48.684 5.786 21.105 27.583 33.526 48.684 27.747l173.152-47.34c19.152-5.226 31.481-23.825 28.829-43.496-2.645-19.678-19.449-34.352-39.301-34.328h0.024zM583.878 18.663c28.621 4.936 50.033 17.179 69.652 38.54 34.628 37.724 64.655 106.008 99.099 196.884 74.424 196.516 149.804 426.643 179.756 519.639l-508.672 101.164-179.132-490.889c-7.895-19.978-30.269-30.037-50.456-22.685s-30.843 29.443-24.044 49.821l190.771 522.796c6.707 18.374 25.805 29.112 44.984 25.3l585.544-116.483c11.035-2.195 20.613-8.984 26.351-18.657 5.741-9.677 7.1-21.337 3.741-32.075-0.976-3.096-98.512-312.088-194.676-565.996-38.772-102.257-71.496-175.148-114.828-222.348-40.772-44.404-89.644-65.512-156.16-66.748-0.795-0.164-1.597-0.321-2.396-0.464-48.34-4.325-105.1 22.903-105.1 22.903l-330.267 149.78c0 0-156.157 48.852-109.264 251.812l451.12-182.084c0 0-17.384-179.9 123.856-160.096l0.119-0.116z" />
<glyph unicode="&#xe90b;" glyph-name="Order_sm" d="M347.914 344.464c-2.7 0-5.472 0.276-8.24 0.86l-2.096 0.444-4.12 0.86c-21.381 4.628-34.959 25.713-30.331 47.090 4.622 21.381 25.706 34.963 47.090 30.334l5.888-1.229c19.828-4.205 33.283-22.702 31.181-42.858-2.099-20.159-19.080-35.482-39.349-35.502h-0.024zM410.985 496.548c-2.727 0-5.495 0.28-8.264 0.86l-1.908 0.42-4.308 0.908c-13.831 2.993-25.016 13.141-29.338 26.61-4.325 13.479-1.13 28.235 8.376 38.717 9.513 10.479 23.886 15.094 37.721 12.1l3.86-0.816 2.004-0.416c19.876-4.154 33.393-22.671 31.293-42.865-2.099-20.2-19.135-35.536-39.438-35.519zM472.889 660.623c-2.768 0-5.533 0.287-8.236 0.857l-1.983 0.42-4.233 0.911c-13.961 2.86-25.313 13.001-29.72 26.556-4.41 13.558-1.191 28.43 8.421 38.956 9.609 10.523 24.136 15.073 38.031 11.913l3.813-0.812 2.075-0.42c19.879-4.157 33.399-22.678 31.293-42.878-2.109-20.2-19.149-35.536-39.461-35.502zM627.533 245.624c-4.116 0-8.26 0.625-12.377 1.976l-172.503 56.555c-13.449 4.413-23.521 15.667-26.423 29.522-2.898 13.851 1.812 28.204 12.36 37.642 10.547 9.441 25.334 12.537 38.782 8.12l172.52-56.555c18.524-6.045 29.901-24.668 26.822-43.909s-19.695-33.386-39.182-33.352zM692.373 405.504c-4.12 0-8.264 0.628-12.384 1.98l-172.52 56.555c-13.541 4.335-23.723 15.599-26.665 29.512-2.949 13.913 1.792 28.334 12.411 37.792 10.619 9.455 25.494 12.489 38.97 7.953l172.547-56.545c18.524-6.052 29.897-24.675 26.818-43.912-3.075-19.244-19.691-33.389-39.178-33.355v0.020zM762.588 577.399c-3.492 0-6.984 0.464-10.499 1.396l-173.151 47.336c-21.101 5.786-33.519 27.583-27.737 48.684 5.786 21.105 27.583 33.526 48.684 27.747l173.151-47.339c19.152-5.226 31.481-23.825 28.829-43.496-2.645-19.678-19.449-34.352-39.301-34.328h0.024zM583.877 18.665c28.621 4.936 50.033 17.179 69.652 38.54 34.628 37.724 64.655 106.008 99.099 196.884 74.424 196.515 149.804 426.642 179.756 519.638l-508.671 101.164-179.131-490.887c-7.895-19.978-30.269-30.037-50.456-22.685s-30.843 29.443-24.043 49.821l190.771 522.795c6.707 18.374 25.805 29.112 44.984 25.3l585.542-116.483c11.035-2.195 20.613-8.984 26.351-18.657 5.741-9.677 7.1-21.337 3.741-32.075-0.976-3.096-98.512-312.087-194.676-565.994-38.772-102.256-71.496-175.148-114.828-222.347-40.772-44.404-89.644-65.512-156.16-66.748-0.795-0.164-1.597-0.321-2.396-0.464-48.34-4.325-105.1 22.903-105.1 22.903l-330.267 149.78c0 0-156.156 48.852-109.264 251.811l451.119-182.084c0 0-17.384-179.899 123.856-160.095l0.119-0.116z" />
<glyph unicode="&#xe90c;" glyph-name="Amount" d="M512 960c-282.58 0-512-229.42-512-512s229.42-512 512-512c282.58 0 512 229.42 512 512s-229.42 512-512 512zM512 905.766c252.648 0 457.766-205.117 457.766-457.766s-205.117-457.766-457.766-457.766c-252.648 0-457.766 205.117-457.766 457.766s205.117 457.766 457.766 457.766zM558.469 827.559c8.745-1.604 14.319-5.543 15.008-16.944v-61.945c29.191-1.853 76.493-10.431 119.736-30.089 0 0 12.022-6.868 9.431-19.92l-26.679-100.413c-13.954-41.752-98.458 46.971-182.938 12.39-17.145-7.018-26.515-30.717-12.302-44.261 29.515-28.129 76.206-37.001 116.62-53.832 68.502-29.423 129.137-90.918 129.867-171.964l-17.067-0.154 17.067-0.191c-0.307-28-2.833-37.185-8.68-54.961-20.767-63.184-81.19-106.953-147.859-122.307 0 0-0.782-79.643-0.782-79.643-1.604-8.745-5.543-14.319-16.944-15.008h-88.047c-9.557 0.577-16.486 7.475-17.067 17.067v68.489c-43.356 3.516-157.28 23.34-150.518 58.443l26.6 103.953c14.189 43.503 116.91-57.47 209.077-18.65 27.18 11.448 26.498 50.562-4.966 68.707-34.089 19.661-73.458 27.645-110.124 44.889-79.964 37.605-140.23 132.707-103.124 222.082 22.818 54.958 76.947 91.723 137.39 106.704 31.683 7.284-23.508 85.228 17.067 87.682 29.744 0 59.542 1.673 89.231-0.123zM486.304 793.549c0 0-0.133-69.495-0.133-69.495-3.816-20.081-16.725-15.104-26.071-17.254-89.481-22.18-161.311-124.713-103.434-207.124 31.208-44.442 87.788-63.969 140.186-82.398 5.816-2.127 5.806-2.12 11.588-4.318 32.249-12.797 66.768-29.307 78.671-61.245 12.715-34.116-10.766-75.172-46.988-87.917-59.761-21.023-129.181-3.673-188.314 23.388 0 0-18.026-70.055-18.026-70.055 40.844-19.135 86.671-27.884 132.004-30.228 0 0 15.247-2.284 16.183-17.046v-67.403h53.914v74.482c1 15.715 1.352 13.868 27.436 19.371 94.536 21.77 171.776 128.795 108.721 221.409-56.040 82.319-212.128 74.844-232.356 152.084-7.881 30.099 13.776 63.044 44.455 73.977 50.237 17.9 108.192 5.7 158.382-14.677l5.68-2.417 17.684 66.56c-34.809 14.23-72.356 20.733-110.114 22.146 0 0-15.473 2.15-16.428 17.056v61.105c-17.681 0-35.359 0-53.040 0zM638.962 471.767c50.446-23.992 104.428-43.441 170.923-48.391 40.059-2.98 75.588-1.444 106.759 2.877-11.568-213.702-188.314-383.662-404.34-383.662-223.498 0-404.948 181.914-404.948 405.982 0 35.956 4.673 70.827 13.442 104.035 56.989 24.166 125.447 41.748 199.851 37.315-0.973-7.144-1.468-14.466-1.468-21.944 0-86.221 64.85-130.598 159.86-162.601 66.639-22.245 95.147-43.636 95.147-77.397 0-34.649-34.611-55.071-86.183-55.071-57.791 0-110.234 18.712-147.552 39.127l-26.6-103.953c33.775-18.702 91.471-35.584 151.050-38.229v-84.47h88.047v91.549c102.089 16.876 157.198 84.432 157.198 163.495-0.027 57.504-21.105 98.83-71.185 131.338zM465.835 557.206c42.499-16.732 80.831-37.7 119.347-58.092-7.168 2.918-14.681 5.765-22.545 8.547-51.101 18.357-81.961 33.222-96.802 49.545z" />
<glyph unicode="&#xe90d;" glyph-name="Amount_sm" d="M512 960c-282.58 0-512-229.42-512-512s229.42-512 512-512c282.58 0 512 229.42 512 512s-229.42 512-512 512zM512 905.766c252.648 0 457.766-205.117 457.766-457.766s-205.117-457.766-457.766-457.766c-252.648 0-457.766 205.117-457.766 457.766s205.117 457.766 457.766 457.766zM558.469 827.559c8.745-1.604 14.319-5.543 15.008-16.944v-61.945c29.191-1.853 76.493-10.431 119.736-30.089 0 0 12.022-6.868 9.431-19.92l-26.679-100.413c-13.954-41.752-98.458 46.971-182.938 12.39-17.145-7.018-26.515-30.717-12.302-44.261 29.515-28.129 76.206-37.001 116.62-53.832 68.502-29.423 129.137-90.918 129.867-171.964l-17.067-0.154 17.067-0.191c-0.307-28-2.833-37.185-8.68-54.961-20.767-63.184-81.19-106.953-147.859-122.307 0 0-0.782-79.643-0.782-79.643-1.604-8.745-5.543-14.319-16.944-15.008h-88.047c-9.557 0.577-16.486 7.475-17.067 17.067v68.489c-43.356 3.516-157.28 23.34-150.518 58.443l26.6 103.953c14.189 43.503 116.91-57.47 209.077-18.65 27.18 11.448 26.498 50.562-4.966 68.707-34.089 19.661-73.458 27.645-110.124 44.889-79.964 37.605-140.23 132.707-103.124 222.082 22.818 54.958 76.947 91.723 137.39 106.704 31.683 7.284-23.508 85.228 17.067 87.682 29.744 0 59.542 1.673 89.231-0.123zM486.304 793.549c0 0-0.133-69.495-0.133-69.495-3.816-20.081-16.725-15.104-26.071-17.254-89.481-22.18-161.311-124.713-103.434-207.124 31.208-44.442 87.788-63.969 140.186-82.398 5.816-2.127 5.806-2.12 11.588-4.318 32.249-12.797 66.768-29.307 78.671-61.245 12.715-34.116-10.766-75.172-46.988-87.917-59.761-21.023-129.181-3.673-188.314 23.388 0 0-18.026-70.055-18.026-70.055 40.844-19.135 86.671-27.884 132.004-30.228 0 0 15.247-2.284 16.183-17.046v-67.403h53.914v74.482c1 15.715 1.352 13.868 27.436 19.371 94.536 21.77 171.776 128.795 108.721 221.409-56.040 82.319-212.128 74.844-232.356 152.084-7.881 30.099 13.776 63.044 44.455 73.977 50.237 17.9 108.192 5.7 158.382-14.677l5.68-2.417 17.684 66.56c-34.809 14.23-72.356 20.733-110.114 22.146 0 0-15.473 2.15-16.428 17.056v61.105c-17.681 0-35.359 0-53.040 0zM638.962 471.767c50.446-23.992 104.428-43.441 170.923-48.391 40.059-2.98 75.588-1.444 106.759 2.877-11.568-213.702-188.314-383.662-404.34-383.662-223.498 0-404.948 181.914-404.948 405.982 0 35.956 4.673 70.827 13.442 104.035 56.989 24.166 125.447 41.748 199.851 37.315-0.973-7.144-1.468-14.466-1.468-21.944 0-86.221 64.85-130.598 159.86-162.601 66.639-22.245 95.147-43.636 95.147-77.397 0-34.649-34.611-55.071-86.183-55.071-57.791 0-110.234 18.712-147.552 39.127l-26.6-103.953c33.775-18.702 91.471-35.584 151.050-38.229v-84.47h88.047v91.549c102.089 16.876 157.198 84.432 157.198 163.495-0.027 57.504-21.105 98.83-71.185 131.338zM465.835 557.206c42.499-16.732 80.831-37.7 119.347-58.092-7.168 2.918-14.681 5.765-22.545 8.547-51.101 18.357-81.961 33.222-96.802 49.545z" />
<glyph unicode="&#xe90e;" glyph-name="Workbench" horiz-adv-x="1280" d="M1236.915 960c23.795 0 43.085-19.29 43.085-43.085 0-146.014 0-621.15 0-767.164 0-23.795-19.29-43.085-43.085-43.085-195.52 0-998.31 0-1193.83 0-23.795 0-43.089 19.29-43.085 43.085 0 146.014 0 621.15 0 767.164-0.004 23.795 19.29 43.085 43.085 43.085 195.52 0 998.31 0 1193.83 0zM1194.667 841.412c0 11.426-4.54 22.383-12.621 30.464-8.077 8.081-19.038 12.617-30.464 12.617-176.879 0-846.285 0-1023.164 0-11.426 0-22.387-4.535-30.464-12.617-8.081-8.081-12.621-19.038-12.621-30.464 0-122.812 0-473.69 0-596.501 0-11.426 4.54-22.383 12.621-30.464 8.077-8.081 19.038-12.621 30.464-12.621 176.879 0 846.285 0 1023.164 0 11.426 0 22.387 4.54 30.464 12.621 8.081 8.081 12.621 19.038 12.621 30.464 0 122.812 0 473.69 0 596.501zM1002.244-3.021c0 6.46-2.569 12.655-7.134 17.22-4.57 4.57-10.761 7.134-17.22 7.134-110.626 0-565.154 0-675.78 0-6.46 0-12.651-2.564-17.22-7.134-4.565-4.565-7.134-10.761-7.134-17.22 0-11.482 0-25.143 0-36.625 0-6.46 2.569-12.655 7.134-17.22 4.57-4.57 10.761-7.13 17.22-7.134 110.626 0 565.154 0 675.78 0 6.46 0.004 12.651 2.564 17.22 7.134 4.565 4.565 7.134 10.761 7.134 17.22 0 11.482 0 25.143 0 36.625zM1164.343 811.132c0 11.426-4.54 22.383-12.621 30.464-8.081 8.077-19.038 12.617-30.464 12.617-169.916 0-792.602 0-962.517 0-11.426 0-22.383-4.54-30.464-12.617-8.081-8.081-12.621-19.038-12.621-30.464 0-114.884 0-427.597 0-542.481 0-11.426 4.54-22.383 12.621-30.464 8.081-8.077 19.038-12.617 30.464-12.617 169.916 0 792.602 0 962.517 0 11.426 0 22.383 4.54 30.464 12.617 8.081 8.081 12.621 19.038 12.621 30.464 0 114.884 0 427.597 0 542.481z" />
<glyph unicode="&#xe90f;" glyph-name="Workbench_sm" horiz-adv-x="1229" d="M1187.439 960c22.843 0 41.361-18.518 41.361-41.361 0-140.173 0-596.304 0-736.477 0-22.843-18.518-41.361-41.361-41.361-187.699 0-958.378 0-1146.077 0-22.843 0-41.366 18.518-41.361 41.361 0 140.173 0 596.304 0 736.477-0.004 22.843 18.518 41.361 41.361 41.361 187.699 0 958.378 0 1146.077 0zM1146.88 846.156c0 10.969-4.358 21.488-12.116 29.245-7.754 7.758-18.276 12.112-29.245 12.112-169.804 0-812.433 0-982.237 0-10.969 0-21.492-4.354-29.245-12.112-7.758-7.758-12.116-18.276-12.116-29.245 0-117.899 0-454.742 0-572.641 0-10.969 4.358-21.488 12.116-29.245 7.754-7.758 18.276-12.116 29.245-12.116 169.804 0 812.433 0 982.237 0 10.969 0 21.492 4.358 29.245 12.116 7.758 7.758 12.116 18.276 12.116 29.245 0 117.899 0 454.742 0 572.641zM962.154 35.5c0 6.201-2.466 12.149-6.849 16.531-4.387 4.387-10.33 6.849-16.531 6.849-106.201 0-542.548 0-648.749 0-6.201 0-12.145-2.462-16.531-6.849-4.383-4.383-6.849-10.33-6.849-16.531 0-11.022 0-24.138 0-35.16 0-6.201 2.466-12.149 6.849-16.531 4.387-4.387 10.33-6.844 16.531-6.849 106.201 0 542.548 0 648.749 0 6.201 0.004 12.145 2.462 16.531 6.849 4.383 4.383 6.849 10.33 6.849 16.531 0 11.022 0 24.138 0 35.16zM1117.77 817.086c0 10.969-4.358 21.488-12.116 29.245-7.758 7.754-18.276 12.112-29.245 12.112-163.119 0-760.898 0-924.017 0-10.969 0-21.488-4.358-29.245-12.112-7.758-7.758-12.116-18.276-12.116-29.245 0-110.289 0-410.493 0-520.782 0-10.969 4.358-21.488 12.116-29.245 7.758-7.754 18.276-12.112 29.245-12.112 163.119 0 760.898 0 924.017 0 10.969 0 21.488 4.358 29.245 12.112 7.758 7.758 12.116 18.276 12.116 29.245 0 110.289 0 410.493 0 520.782z" />
<glyph unicode="&#xe911;" glyph-name="grey_star" horiz-adv-x="1059" d="M529.658 960l-163.667-331.633-365.992-53.19 264.83-258.133-62.53-364.511 327.358 172.087 327.357-172.087-62.528 364.511 264.823 258.133-365.985 53.19z" />
<glyph unicode="&#xe912;" glyph-name="Role" horiz-adv-x="1336" d="M510.072 960c148.168 0 268.462-120.293 268.462-268.462s-120.293-268.462-268.462-268.462c-148.168 0-268.462 120.293-268.462 268.462s120.293 268.462 268.462 268.462zM1013.431 67.384c4.439-22.029 6.718-44.602 6.718-67.406 0-1.166 0-2.32 0-3.459 0-15.543-6.175-30.453-17.168-41.441-10.992-10.992-25.898-17.172-41.441-17.168-179.926 0-723.011 0-902.932 0-15.543-0.004-30.453 6.175-41.441 17.168-10.992 10.988-17.168 25.898-17.168 41.441 0 1.14 0 2.293 0 3.459 0 90.615 35.996 177.522 100.072 241.597s150.982 100.072 241.597 100.072c108.455 0 228.352 0 336.807 0 58.181 0 114.83-14.839 164.891-42.42v-145.564c0-8.419 5.027-16.023 12.773-19.322l157.291-66.956zM1315.123 652.862c-76.466 0-344.282 0-420.748 0-5.445 0-10.667-2.159-14.519-6.010-3.847-3.851-6.010-9.074-6.010-14.519 0-82.062 0-385.353 0-453.311 0-8.232 4.915-15.667 12.488-18.891 43.039-18.321 184.164-78.394 213.54-90.9 3.442-1.465 7.333-1.465 10.774 0.009 29.286 12.52 169.677 72.548 212.547 90.882 7.555 3.228 12.457 10.654 12.457 18.873 0 67.918 0 371.267 0 453.338 0 5.445-2.164 10.667-6.010 14.519-3.851 3.851-9.074 6.010-14.519 6.010zM1081.202 586.694c0 6.972 5.654 12.626 12.626 12.626 8.21 0 18.877 0 27.087 0 3.348 0 6.563-1.331 8.931-3.7s3.695-5.579 3.695-8.931c0-44.793 0-193.411 0-193.411 45.448-12.604 78.844-54.299 78.844-103.736 0-59.405-48.23-107.636-107.636-107.636s-107.636 48.23-107.636 107.636c0 51.32 35.991 94.297 84.088 105.049 0 0 0 74.805 0 105.214 0 6.977-5.654 12.631-12.631 12.631-8.21 0-18.873 0-27.083 0-3.352 0-6.563 1.331-8.931 3.7s-3.7 5.579-3.7 8.927c0 4.929 0 10.565 0 15.494 0 3.348 1.331 6.563 3.7 8.931s5.579 3.7 8.931 3.7c8.21 0 18.873 0 27.083 0 6.977 0 12.631 5.65 12.631 12.626 0 6.491 0 14.385 0 20.881zM1104.749 239.825c-27.443 0-49.722 22.279-49.722 49.717 0 27.443 22.279 49.722 49.722 49.722s49.722-22.279 49.722-49.722c0-27.439-22.279-49.717-49.722-49.717z" />
<glyph unicode="&#xe913;" glyph-name="Role_sm" horiz-adv-x="1317" d="M502.785 960c146.052 0 264.626-118.575 264.626-264.626s-118.575-264.626-264.626-264.626c-146.052 0-264.626 118.575-264.626 264.626s118.575 264.626 264.626 264.626zM998.953 80.135c4.375-21.715 6.622-43.965 6.622-66.443 0-1.15 0-2.286 0-3.41 0-15.321-6.087-30.018-16.922-40.849-10.835-10.835-25.528-16.927-40.849-16.922-177.355 0-712.682 0-890.033 0-15.321-0.004-30.018 6.087-40.849 16.922-10.835 10.831-16.922 25.528-16.922 40.849 0 1.123 0 2.26 0 3.41 0 89.321 35.482 174.986 98.642 238.146s148.825 98.642 238.146 98.642c106.906 0 225.090 0 331.995 0 57.35 0 113.19-14.627 162.535-41.814v-143.484c0-8.299 4.955-15.794 12.591-19.046l155.044-66zM1296.336 657.25c-75.374 0-339.364 0-414.738 0-5.367 0-10.515-2.128-14.311-5.925-3.792-3.796-5.925-8.944-5.925-14.311 0-80.89 0-379.848 0-446.836 0-8.114 4.845-15.443 12.31-18.621 42.424-18.059 181.533-77.274 210.489-89.601 3.392-1.444 7.228-1.444 10.62 0.009 28.868 12.341 167.253 71.512 209.51 89.584 7.447 3.182 12.279 10.502 12.279 18.603 0 66.948 0 365.963 0 446.862 0 5.367-2.133 10.515-5.925 14.311-3.796 3.796-8.944 5.925-14.311 5.925zM1065.756 592.027c0 6.873 5.573 12.446 12.446 12.446 8.093 0 18.608 0 26.7 0 3.3 0 6.469-1.312 8.803-3.647s3.643-5.499 3.643-8.803c0-44.153 0-190.648 0-190.648 44.799-12.424 77.717-53.523 77.717-102.254 0-58.557-47.541-106.098-106.098-106.098s-106.098 47.541-106.098 106.098c0 50.587 35.477 92.95 82.887 103.548 0 0 0 73.737 0 103.711 0 6.877-5.573 12.45-12.45 12.45-8.093 0-18.603 0-26.696 0-3.305 0-6.469 1.312-8.803 3.647s-3.647 5.499-3.647 8.799c0 4.858 0 10.414 0 15.272 0 3.3 1.312 6.469 3.647 8.803s5.499 3.647 8.803 3.647c8.093 0 18.603 0 26.696 0 6.877 0 12.45 5.569 12.45 12.446 0 6.399 0 14.179 0 20.582zM1088.967 250.113c-27.051 0-49.012 21.96-49.012 49.007 0 27.051 21.96 49.012 49.012 49.012s49.012-21.96 49.012-49.012c0-27.047-21.96-49.007-49.012-49.007z" />
<glyph unicode="&#xe914;" glyph-name="BigData" horiz-adv-x="1280" d="M1236.915 960c23.795 0 43.085-19.29 43.085-43.085 0-146.014 0-621.15 0-767.164 0-23.795-19.29-43.085-43.085-43.085-195.52 0-998.31 0-1193.83 0-23.795 0-43.089 19.29-43.085 43.085 0 146.014 0 621.15 0 767.164-0.004 23.795 19.29 43.085 43.085 43.085 195.52 0 998.31 0 1193.83 0zM1194.667 841.412c0 11.426-4.54 22.383-12.621 30.464-8.077 8.081-19.038 12.617-30.464 12.617-176.879 0-846.285 0-1023.164 0-11.426 0-22.387-4.535-30.464-12.617-8.081-8.081-12.621-19.038-12.621-30.464 0-122.812 0-473.69 0-596.501 0-11.426 4.54-22.383 12.621-30.464 8.077-8.081 19.038-12.621 30.464-12.621 176.879 0 846.285 0 1023.164 0 11.426 0 22.387 4.54 30.464 12.621 8.081 8.081 12.621 19.038 12.621 30.464 0 122.812 0 473.69 0 596.501zM1002.244-3.021c0 6.46-2.569 12.655-7.134 17.22-4.57 4.57-10.761 7.134-17.22 7.134-110.626 0-565.154 0-675.78 0-6.46 0-12.651-2.564-17.22-7.134-4.565-4.565-7.134-10.761-7.134-17.22 0-11.482 0-25.143 0-36.625 0-6.46 2.569-12.655 7.134-17.22 4.57-4.57 10.761-7.13 17.22-7.134 110.626 0 565.154 0 675.78 0 6.46 0.004 12.651 2.564 17.22 7.134 4.565 4.565 7.134 10.761 7.134 17.22 0 11.482 0 25.143 0 36.625zM278.596 518.541c54.353 0 98.483-44.13 98.483-98.487 0-54.353-44.13-98.483-98.483-98.483-54.357 0-98.487 44.13-98.487 98.483 0 54.357 44.13 98.487 98.487 98.487zM557.999 800.845c54.353 0 98.483-44.13 98.483-98.487 0-54.353-44.13-98.483-98.483-98.483-54.357 0-98.487 44.13-98.487 98.483 0 54.357 44.13 98.487 98.487 98.487zM560.141 723.584c10.88-1.715 11.712-2.62 16.9-11.605l158.345-313.459c0 0 253.82 222.857 253.82 222.857 12.463 7.684 17.408 4.049 22.677 1.079 11.849-6.677 14.127-24.26 3.605-34.607l-272.64-239.569c-11.136-8.713-26.253-5.457-33.122 6.409l-157.41 311.603c0 0-260.335-262.848-260.335-262.848-18.428-13.218-47.808 9.843-28.548 31.616l279.403 282.304c8.017 7.245 7.812 6.647 17.306 6.221zM728.768 462.793c54.357 0 98.487-44.13 98.487-98.483 0-54.357-44.13-98.487-98.487-98.487s-98.487 44.13-98.487 98.487c0 54.353 44.13 98.483 98.487 98.483zM1001.404 702.357c54.357 0 98.487-44.13 98.487-98.483 0-54.357-44.13-98.487-98.487-98.487-54.353 0-98.483 44.13-98.483 98.487 0 54.353 44.13 98.483 98.483 98.483z" />
<glyph unicode="&#xe915;" glyph-name="BigData_sm" horiz-adv-x="1229" d="M1187.439 960c22.843 0 41.361-18.518 41.361-41.361 0-140.173 0-596.304 0-736.477 0-22.843-18.518-41.361-41.361-41.361-187.699 0-958.378 0-1146.077 0-22.843 0-41.366 18.518-41.361 41.361 0 140.173 0 596.304 0 736.477-0.004 22.843 18.518 41.361 41.361 41.361 187.699 0 958.378 0 1146.077 0zM1146.88 846.156c0 10.969-4.358 21.488-12.116 29.245-7.754 7.758-18.276 12.112-29.245 12.112-169.804 0-812.433 0-982.237 0-10.969 0-21.492-4.354-29.245-12.112-7.758-7.758-12.116-18.276-12.116-29.245 0-117.899 0-454.742 0-572.641 0-10.969 4.358-21.488 12.116-29.245 7.754-7.758 18.276-12.116 29.245-12.116 169.804 0 812.433 0 982.237 0 10.969 0 21.492 4.358 29.245 12.116 7.758 7.758 12.116 18.276 12.116 29.245 0 117.899 0 454.742 0 572.641zM962.154 35.5c0 6.201-2.466 12.149-6.849 16.531-4.387 4.387-10.33 6.849-16.531 6.849-106.201 0-542.548 0-648.749 0-6.201 0-12.145-2.462-16.531-6.849-4.383-4.383-6.849-10.33-6.849-16.531 0-11.022 0-24.138 0-35.16 0-6.201 2.466-12.149 6.849-16.531 4.387-4.387 10.33-6.844 16.531-6.849 106.201 0 542.548 0 648.749 0 6.201 0.004 12.145 2.462 16.531 6.849 4.383 4.383 6.849 10.33 6.849 16.531 0 11.022 0 24.138 0 35.16zM267.452 536.199c52.179 0 94.544-42.365 94.544-94.548 0-52.179-42.365-94.544-94.544-94.544-52.183 0-94.548 42.365-94.548 94.544 0 52.183 42.365 94.548 94.548 94.548zM535.679 807.211c52.179 0 94.544-42.365 94.544-94.548 0-52.179-42.365-94.544-94.544-94.544-52.183 0-94.548 42.365-94.548 94.544 0 52.183 42.365 94.548 94.548 94.548zM537.735 733.041c10.445-1.647 11.244-2.515 16.224-11.141l152.011-300.921c0 0 243.667 213.942 243.667 213.942 11.964 7.377 16.712 3.887 21.77 1.036 11.375-6.41 13.562-23.29 3.461-33.223l-261.734-229.986c-10.691-8.364-25.203-5.239-31.797 6.152l-151.114 299.139c0 0-249.922-252.334-249.922-252.334-17.691-12.689-45.896 9.449-27.406 30.351l268.227 271.012c7.696 6.955 7.5 6.382 16.613 5.972zM699.617 482.681c52.183 0 94.548-42.365 94.548-94.544 0-52.183-42.365-94.548-94.548-94.548s-94.548 42.365-94.548 94.548c0 52.179 42.365 94.544 94.548 94.544zM961.348 712.663c52.183 0 94.548-42.365 94.548-94.544 0-52.183-42.365-94.548-94.548-94.548-52.179 0-94.544 42.365-94.544 94.548 0 52.179 42.365 94.544 94.544 94.544z" />
<glyph unicode="&#xe916;" glyph-name="Enterprise" d="M777.306 960l-484.071-166.396v-42.671l437.536 136.536v-947.202h293.23v59.738h-102.393v844.786l-144.302 115.208zM0 610.141v-674.141h65.141v644.27l367.723 110.94v-750.943h190.83l-4.65 759.46-130.334 72.541-488.71-162.128zM134.969 520.536v-98.126l232.735 59.723v110.929l-232.735-72.526zM134.969 354.14v-93.869l232.735 42.663v106.673l-232.735-55.466zM134.969 192.001v-93.862l232.735 21.332v106.665l-232.735-34.135zM134.969 34.141v-93.873h232.735v110.94l-232.735-17.067z" />
<glyph unicode="&#xe917;" glyph-name="Enterprise_sm" d="M777.306 960l-484.071-166.396v-42.671l437.536 136.536v-947.202h293.23v59.738h-102.393v844.786l-144.302 115.208zM0 610.141v-674.141h65.141v644.27l367.723 110.94v-750.943h190.83l-4.65 759.46-130.334 72.541-488.71-162.128zM134.969 520.536v-98.126l232.735 59.723v110.929l-232.735-72.526zM134.969 354.14v-93.869l232.735 42.663v106.673l-232.735-55.466zM134.969 192.001v-93.862l232.735 21.332v106.665l-232.735-34.135zM134.969 34.141v-93.873h232.735v110.94l-232.735-17.067z" />
<glyph unicode="&#xe918;" glyph-name="calendar" d="M99.415 42.277v561.359h825.165v-561.359h-825.165zM918 847.203v-46.97c0-55.844-44.749-101.272-99.753-101.272s-99.751 45.428-99.751 101.272v46.97h-410.671v-46.76c0-55.848-44.749-101.276-99.747-101.276-55.002 0-99.751 45.428-99.751 101.276v46.76h-108.327v-905.855h1024v905.855h-106zM253.241 914.152c0 25.316-20.222 45.848-45.158 45.848-24.945 0-45.168-20.526-45.168-45.848v-115.382c0-25.323 20.222-45.854 45.168-45.854 24.935 0 45.158 20.525 45.158 45.854v115.382zM863.411 798.559c0-25.321-20.222-45.854-45.158-45.854s-45.169 20.532-45.169 45.854v115.382c0 25.317 20.222 45.848 45.169 45.848s45.158-20.525 45.158-45.848v-115.382zM662.487 132.862h146.401v148.635h-146.401v-148.635zM441.28 132.862h146.401v148.635h-146.401v-148.635zM220.080 132.862h146.401v148.635h-146.401v-148.635zM662.487 349.869h146.401v148.633h-146.401v-148.633zM441.28 349.869h146.401v148.633h-146.401v-148.633zM220.080 349.869h146.401v148.633h-146.401v-148.633z" />
<glyph unicode="&#xe919;" glyph-name="Financing" horiz-adv-x="887" d="M289.748 659.224h328.991c22.231 0 43.633 9.448 57.904 26.429 33.99 40.294 66.086 90.013 73.434 134.291 14.476 88.951-23.504 134.062-134.072 134.062-110.356 0-73.015-72.38-116.023-78.466-32.109-4.403-30.846 37.762-81.2 78.261-36.082 28.952-76.582-52.876-124.208-53.511-55.596-0.625-133.857 14.694-133.857-80.346 0-38.397 33.563-90.228 70.496-133.448 14.691-17.203 35.878-27.273 58.535-27.273zM484.178 89.996v-61.051h-58.716v56.33c-39.731 1.765-78.206 13.022-100.727 25.491l17.739 69.325c24.887-13.616 59.856-26.092 98.393-26.092 34.389 0 57.47 13.616 57.47 36.721 0 22.514-19.009 36.779-63.447 51.613-63.358 21.344-106.598 50.934-106.598 108.431 0 52.726 36.68 93.645 100.062 105.499v56.303h58.132v-52.128c39.107-1.219 65.772-10.063 86.514-19.606l-17.79-66.959c-14.831 7.154-42.687 20.794-85.35 20.794-38.475 0-50.961-17.193-50.961-33.792 0-18.93 20.774-32.027 71.738-50.336 70.489-24.921 98.342-57.521 98.369-111.517 0-52.722-36.748-97.772-104.827-109.025zM700.143 574.461c-17.63 19.937-43.015 31.051-69.666 31.051h-351.010c-25.388 0-49.934-10.278-67.348-28.532-110.356-115.613-212.118-280.726-212.118-400.957 0-106.155 106.588-240.022 238.138-240.022h407.658c131.55 0 238.138 132.809 238.138 240.022 0 122.539-81.824 282.836-183.791 398.438z" />
<glyph unicode="&#xe91a;" glyph-name="Financing_sm" horiz-adv-x="910" d="M289.748 659.224h328.991c22.231 0 43.633 9.448 57.904 26.429 33.99 40.294 66.086 90.013 73.434 134.291 14.476 88.951-23.504 134.062-134.072 134.062-110.356 0-73.015-72.38-116.023-78.466-32.109-4.403-30.846 37.762-81.2 78.261-36.082 28.952-76.582-52.876-124.208-53.511-55.596-0.625-133.857 14.694-133.857-80.346 0-38.397 33.563-90.228 70.496-133.448 14.691-17.203 35.878-27.273 58.535-27.273zM484.178 89.996v-61.051h-58.716v56.33c-39.731 1.765-78.206 13.022-100.727 25.491l17.739 69.325c24.887-13.616 59.856-26.092 98.393-26.092 34.389 0 57.47 13.616 57.47 36.721 0 22.514-19.009 36.779-63.447 51.613-63.358 21.344-106.598 50.934-106.598 108.431 0 52.726 36.68 93.645 100.062 105.499v56.303h58.132v-52.128c39.107-1.219 65.772-10.063 86.514-19.606l-17.79-66.959c-14.831 7.154-42.687 20.794-85.35 20.794-38.475 0-50.961-17.193-50.961-33.792 0-18.93 20.774-32.027 71.738-50.336 70.489-24.921 98.342-57.521 98.369-111.517 0-52.722-36.748-97.772-104.827-109.025zM700.143 574.461c-17.63 19.937-43.015 31.051-69.666 31.051h-351.010c-25.388 0-49.934-10.278-67.348-28.532-110.356-115.613-212.118-280.726-212.118-400.957 0-106.155 106.588-240.022 238.138-240.022h407.658c131.55 0 238.138 132.809 238.138 240.022 0 122.539-81.824 282.836-183.791 398.438z" />
<glyph unicode="&#xe91b;" glyph-name="Statistical" horiz-adv-x="1182" d="M369.282 106.672h-110.785c-30.574 0-55.391 25.482-55.391 56.887v113.777c0 31.408 24.816 56.891 55.391 56.891h110.785c30.574 0 55.398-25.482 55.398-56.891v-113.777c0-31.477-24.816-56.887-55.398-56.887zM683.177 106.672h-110.785c-30.582 0-55.398 25.41-55.398 56.887v625.777c0 31.4 24.816 56.891 55.398 56.891h110.785c30.574 0 55.391-25.482 55.391-56.891v-625.777c0-31.477-24.816-56.887-55.391-56.887zM997.065 106.672h-110.789c-30.57 0-55.387 25.482-55.387 56.887v398.219c0 31.408 24.816 56.895 55.387 56.895h110.789c30.574 0 55.394-25.487 55.394-56.895v-398.219c0-31.477-24.816-56.887-55.394-56.887zM1126.317-64h-1070.923c-30.578 0-55.394 25.41-55.394 56.891v910.219c0 31.404 24.816 56.891 55.394 56.891s55.391-25.487 55.391-56.891v-853.332h1015.532c30.578 0 55.394-25.482 55.394-56.887 0-31.481-24.816-56.891-55.394-56.891z" />
<glyph unicode="&#xe91c;" glyph-name="Statistical_sm" horiz-adv-x="1152" d="M359.997 150.006h-108c-29.806 0-53.998 24.188-53.998 53.998v108c0 29.813 24.192 54.002 53.998 54.002h108c29.806 0 54.006-24.188 54.006-54.002v-108c0-29.878-24.192-53.998-54.006-53.998zM666 150.006h-108c-29.813 0-54.006 24.119-54.006 53.998v593.999c0 29.806 24.192 54.002 54.006 54.002h108c29.806 0 53.998-24.188 53.998-54.002v-593.999c0-29.878-24.192-53.998-53.998-53.998zM971.996 150.006h-108.003c-29.802 0-53.994 24.188-53.994 53.998v377.996c0 29.813 24.192 54.006 53.994 54.006h108.003c29.806 0 54.002-24.192 54.002-54.006v-377.996c0-29.878-24.192-53.998-54.002-53.998zM1097.998-12h-1043.997c-29.809 0-54.002 24.119-54.002 54.002v863.996c0 29.809 24.192 54.002 54.002 54.002s53.998-24.192 53.998-54.002v-809.998h989.999c29.809 0 54.002-24.188 54.002-53.998 0-29.882-24.192-54.002-54.002-54.002z" />
<glyph unicode="&#xe91e;" glyph-name="wechat" horiz-adv-x="1117" d="M406.361 336.431c-4.986-2.497-10.722-3.995-16.707-3.995-13.967 0-26.059 7.732-32.421 19.082l-2.489 5.357-101.75 223.192c-1.119 2.497-1.747 5.243-1.747 7.86 0 10.351 8.354 18.576 18.582 18.576 4.238 0 7.975-1.37 11.093-3.738l119.953-85.414c9.102-5.985 19.702-9.102 30.552-9.102 6.733 0 13.089 1.248 19.074 3.367l564.347 251.126c-101.128 119.326-267.711 197.257-456.243 197.257-308.478 0-558.605-208.356-558.605-465.467 0-140.276 75.185-266.584 193.019-351.869 9.48-6.735 15.586-17.834 15.586-30.303 0-4.115-0.871-7.982-1.997-11.847-9.352-35.161-24.439-91.271-25.189-93.89-1.119-4.364-2.989-8.979-2.989-13.588 0-10.229 8.354-18.582 18.576-18.582 3.995 0 7.361 1.498 10.728 3.494l122.322 70.57c9.224 5.365 18.953 8.604 29.675 8.604 5.734 0 11.22-0.871 16.456-2.491 57.109-16.462 118.583-25.564 182.297-25.564 308.478 0 558.607 208.482 558.607 465.466 0 77.809-23.063 151.247-63.587 215.717l-647.143-373.819z" />
<glyph unicode="&#xe91f;" d="M68.267 960h887.467c37.703 0 68.267-30.564 68.267-68.267v-887.467c0-37.703-30.564-68.267-68.267-68.267h-887.467c-37.703 0-68.267 30.564-68.267 68.267v887.467c0 37.703 30.564 68.267 68.267 68.267z" />
<glyph unicode="&#xe920;" d="M636.745 641.114v182.299l182.291-182.299h-182.291zM204.333 823.467l409.815-0.051v-204.892h204.888v-153.663h-614.703v358.606zM102.4 55.076v358.56h819.083v-358.56h-819.083z" />
<glyph unicode="&#xe92b;" glyph-name="wait" d="M469.331 362.71h255.998c23.582 0 42.668 19.083 42.668 42.581 0 23.582-19.082 42.752-42.668 42.752h-213.329v213.334c0 23.499-19.088 42.668-42.67 42.668s-42.663-19.169-42.663-42.668v-256.086c-0.005-23.498 19.082-42.581 42.663-42.581zM515.997 808.001c202.499 0 366.668-164.125 366.668-366.625 0-202.582-164.169-366.663-366.668-366.663s-366.665 164.081-366.665 366.663c0 202.499 164.165 366.625 366.665 366.625zM512.001-63.953c282.746 0 511.999 229.245 511.999 511.996-0.005 282.747-229.253 511.957-511.999 511.957-282.752 0-512.001-229.21-512.001-511.957 0-282.751 229.248-511.996 512.001-511.996z" />
<glyph unicode="&#xe92d;" glyph-name="Email" horiz-adv-x="1536" d="M0.056 903.639l753.592-510.049c12.575-7.219 14.433-7.992 28.442-0.169l753.91 496.973v-895.519c0-32.517-26.358-58.87-58.875-58.875-243.983 0-1174.267 0-1418.25 0-32.517 0.005-58.87 26.358-58.875 58.875 0 180.634 0 725.617 0 906.25 0 0.845 0.015 1.679 0.056 2.514zM24.499 948.92c9.667 6.973 21.545 11.080 34.376 11.080 243.983 0 1174.267 0 1418.25 0 17.091 0 32.486-7.286 43.238-18.924l-752.179-495.498-743.685 503.342z" />
<glyph unicode="&#xe92e;" glyph-name="Email_sm" horiz-adv-x="1536" d="M0.056 903.639l753.592-510.049c12.575-7.219 14.433-7.992 28.442-0.169l753.91 496.973v-895.519c0-32.517-26.358-58.87-58.875-58.875-243.983 0-1174.267 0-1418.25 0-32.517 0.005-58.87 26.358-58.875 58.875 0 180.634 0 725.617 0 906.25 0 0.845 0.015 1.679 0.056 2.514zM24.499 948.92c9.667 6.973 21.545 11.080 34.376 11.080 243.983 0 1174.267 0 1418.25 0 17.091 0 32.486-7.286 43.238-18.924l-752.179-495.498-743.685 503.342z" />
<glyph unicode="&#xe92f;" glyph-name="Account" horiz-adv-x="1280" d="M505.675 960c146.891 0 266.147-119.256 266.147-266.147s-119.256-266.147-266.147-266.147c-146.891 0-266.147 119.256-266.147 266.147s119.256 266.147 266.147 266.147zM1011.394 187.997c-57.649 0-104.497 46.729-104.497 104.492 0 57.635 46.755 104.391 104.497 104.391 57.631 0 104.501-46.755 104.501-104.492-0.088-57.662-46.87-104.391-104.501-104.391zM1271.455 328.854c-2.057 11.418-13.074 23.009-24.452 25.591l-8.545 1.946c-20.025 6.065-37.8 19.319-49.099 38.85-11.313 19.602-13.987 41.918-9.044 62.34l2.67 8.038c3.394 11.083-1.037 26.412-9.98 34.013 0 0-8.011 6.784-30.596 19.831-22.612 12.95-32.371 16.534-32.371 16.534-11.008 3.994-26.412 0.207-34.441-8.316l-5.937-6.369c-15.223-14.389-35.663-23.137-58.266-23.137-22.59 0-43.295 8.854-58.47 23.34l-5.756 6.166c-7.91 8.523-23.42 12.31-34.41 8.316 0 0-9.865-3.584-32.477-16.53-22.612-13.158-30.508-19.937-30.508-19.937-8.956-7.499-13.361-22.727-9.966-33.911l2.454-8.113c4.842-20.445 2.269-42.664-9.031-62.265-11.299-19.628-29.303-32.989-49.43-38.952l-8.205-1.845c-11.308-2.582-22.422-14.098-24.479-25.591 0 0-1.832-10.262-1.832-36.365s1.832-36.365 1.832-36.365c2.057-11.52 13.065-23.036 24.479-25.591l8.020-1.871c20.131-5.937 38.201-19.297 49.514-39.027 11.308-19.628 13.974-41.922 9.031-62.367l-2.353-7.91c-3.394-11.105 1.011-26.412 9.966-34.013 0 0 8.002-6.78 30.61-19.831 22.625-13.056 32.375-16.534 32.375-16.534 10.99-4.017 26.399-0.207 34.41 8.316l5.654 6.065c15.276 14.486 35.866 23.314 58.571 23.314 22.696 0 43.352-8.929 58.553-23.415l5.654-6.065c7.923-8.523 23.433-12.337 34.436-8.342 0 0 9.865 3.606 32.477 16.556 22.585 13.052 30.49 19.836 30.49 19.836 8.947 7.495 13.374 22.802 9.984 34.013l-2.485 8.214c-4.811 20.343-2.251 42.536 9.070 62.062 11.304 19.628 29.369 33.090 49.51 39.027l8.011 1.867c11.286 2.56 22.404 14.080 24.457 25.596 0 0 1.867 10.258 1.867 36.365-0.119 26.205-1.964 36.467-1.964 36.467zM1008.662 50.873c1.783-14.062 2.692-28.292 2.692-42.62 0-1.156 0-2.3 0-3.43 0-15.409-6.122-30.19-17.020-41.084-10.898-10.898-25.675-17.024-41.084-17.020-178.375 0-716.778 0-895.148 0-15.409-0.004-30.19 6.122-41.084 17.020-10.898 10.893-17.020 25.675-17.020 41.084 0 1.13 0 2.273 0 3.43 0 89.834 35.686 175.991 99.209 239.514s149.681 99.209 239.514 99.209c107.52 0 226.383 0 333.903 0 12.354 0 24.638-0.675 36.802-2.004-1.721-3.16-2.953-6.475-3.549-9.785 0 0-2.145-12.050-2.145-42.69s2.145-42.686 2.145-42.686c2.419-13.519 15.338-27.039 28.734-30.040l9.419-2.194c23.627-6.969 44.84-22.652 58.116-45.815 13.277-23.040 16.402-49.205 10.602-73.207l-2.759-9.278c-3.986-13.043 1.183-31.007 11.697-39.927 0 0 9.388-7.962 35.928-23.283 26.558-15.32 38.003-19.407 38.003-19.407 12.902-4.714 30.989-0.238 40.391 9.763l6.638 7.119c17.315 16.419 40.448 26.646 66.013 27.33z" />
<glyph unicode="&#xe930;" glyph-name="Account_sm" horiz-adv-x="1229" d="M485.448 960c141.015 0 255.501-114.486 255.501-255.501s-114.486-255.501-255.501-255.501c-141.015 0-255.501 114.486-255.501 255.501s114.486 255.501 255.501 255.501zM970.938 218.877c-55.343 0-100.317 44.86-100.317 100.312 0 55.33 44.885 100.215 100.317 100.215 55.326 0 100.321-44.885 100.321-100.312-0.085-55.355-44.995-100.215-100.321-100.215zM1220.597 354.1c-1.975 10.962-12.551 22.089-23.474 24.568l-8.203 1.869c-19.224 5.822-36.288 18.546-47.135 37.296-10.86 18.818-13.428 40.241-8.682 59.847l2.564 7.716c3.258 10.64-0.996 25.356-9.58 32.652 0 0-7.691 6.513-29.373 19.038-21.707 12.432-31.076 15.873-31.076 15.873-10.568 3.835-25.356 0.199-33.063-7.983l-5.699-6.114c-14.614-13.813-34.237-22.212-55.936-22.212-21.686 0-41.563 8.5-56.131 22.407l-5.525 5.919c-7.593 8.182-22.483 11.818-33.034 7.983 0 0-9.47-3.441-31.178-15.868-21.707-12.631-29.288-19.14-29.288-19.14-8.597-7.199-12.826-21.818-9.568-32.555l2.356-7.788c4.648-19.627 2.178-40.957-8.669-59.775-10.847-18.843-28.131-31.669-47.453-37.394l-7.877-1.771c-10.856-2.479-21.525-13.534-23.5-24.568 0 0-1.758-9.852-1.758-34.911s1.758-34.911 1.758-34.911c1.975-11.059 12.542-22.114 23.5-24.568l7.699-1.797c19.326-5.699 36.673-18.525 47.533-37.466 10.856-18.843 13.415-40.245 8.669-59.872l-2.258-7.593c-3.258-10.661 0.97-25.356 9.568-32.652 0 0 7.682-6.508 29.385-19.038 21.72-12.534 31.080-15.873 31.080-15.873 10.551-3.856 25.343-0.199 33.034 7.983l5.428 5.822c14.665 13.907 34.432 22.381 56.228 22.381 21.788 0 41.618-8.572 56.211-22.479l5.428-5.822c7.606-8.182 22.496-11.843 33.059-8.008 0 0 9.47 3.462 31.178 15.894 21.682 12.53 29.271 19.042 29.271 19.042 8.589 7.195 12.839 21.89 9.585 32.652l-2.386 7.886c-4.619 19.529-2.161 40.834 8.708 59.58 10.852 18.843 28.195 31.767 47.529 37.466l7.691 1.792c10.835 2.458 21.508 13.517 23.479 24.572 0 0 1.792 9.847 1.792 34.911-0.114 25.157-1.886 35.008-1.886 35.008zM968.316 87.238c1.712-13.5 2.585-27.161 2.585-40.915 0-1.11 0-2.208 0-3.292 0-14.792-5.877-28.983-16.339-39.44-10.462-10.462-24.648-16.343-39.44-16.339-171.24 0-688.107 0-859.342 0-14.792-0.004-28.983 5.877-39.44 16.339-10.462 10.458-16.339 24.648-16.339 39.44 0 1.085 0 2.182 0 3.292 0 86.241 34.258 168.952 95.24 229.934s143.693 95.24 229.934 95.24c103.219 0 217.328 0 320.547 0 11.86 0 23.652-0.648 35.33-1.924-1.653-3.034-2.835-6.216-3.407-9.394 0 0-2.059-11.568-2.059-40.983s2.059-40.978 2.059-40.978c2.322-12.979 14.724-25.957 27.584-28.839l9.042-2.106c22.682-6.691 43.046-21.746 55.792-43.983 12.746-22.118 15.746-47.237 10.178-70.279l-2.648-8.907c-3.826-12.521 1.136-29.767 11.229-38.33 0 0 9.013-7.644 34.491-22.351 25.495-14.707 36.483-18.631 36.483-18.631 12.385-4.525 29.75-0.229 38.775 9.373l6.373 6.835c16.623 15.763 38.83 25.58 63.372 26.237z" />
<glyph unicode="&#xe931;" glyph-name="correct" horiz-adv-x="1365" d="M529.956 296.007l-349.517 360.416-180.439-182.287 529.956-538.137 829.507 841.559-187.126 182.441z" />
<glyph unicode="&#xe932;" glyph-name="alipay" d="M249.853 403.879c94.214 10.261 182.275-26.678 286.725-77.981-75.776-94.391-167.936-153.907-260.094-153.907-159.749 0-206.851 125.177-126.976 194.955 26.619 22.571 73.726 34.88 100.345 36.934zM860.164 960c90.115 0 163.836-73.88 163.836-164.169v-531.498c0 0-32.762 4.108-180.22 53.357-40.965 14.363-96.258 34.892-157.693 57.463 36.86 63.606 65.529 137.486 86.011 215.467h-202.752v71.826h247.809v41.041h-247.809v121.075h-100.351c-18.432 0-18.432-18.469-18.432-18.469v-104.654h-249.853v-41.046h249.853v-69.774h-206.851v-41.035h401.411c-14.34-51.307-34.81-98.504-57.342-141.598-129.026 43.094-268.293 77.975-356.353 55.403-55.298-14.362-92.164-38.988-112.642-63.617-96.258-116.963-26.624-295.496 176.127-295.496 120.835 0 237.568 67.714 327.679 178.533 135.173-65.672 401.411-176.485 401.411-176.485v-6.154c0-90.297-73.722-164.17-163.836-164.17h-696.321c-90.116 0-163.842 73.874-163.842 164.17v695.661c0 90.289 73.726 164.169 163.842 164.169h696.321z" />
</font>
</defs>
</svg>
